<svg width="143" height="39" viewBox="0 0 143 39" fill="none" xmlns="http://www.w3.org/2000/svg">
<g clip-path="url(#clip0)">
<path d="M12.2215 12.748V18.8144C12.2215 20.0309 12.8938 21.1418 13.955 21.6765L18.94 24.1888V29.1141C18.94 29.2928 18.8396 29.4538 18.6828 29.5293L0.633465 38.2024C0.580161 38.2277 0.522328 38.242 0.4634 38.2445C0.404472 38.247 0.34565 38.2375 0.290426 38.2168C0.235202 38.196 0.184702 38.1643 0.141923 38.1236C0.0991435 38.0829 0.064958 38.034 0.0413954 37.9797C0.014005 37.9188 -0.000107812 37.8528 6.20126e-07 37.786V18.837C6.20126e-07 18.6584 0.100351 18.4961 0.259659 18.4219L12.2215 12.748V12.748Z" fill="white" fill-opacity="0.5"/>
<path d="M33.3704 9.88084V28.6839C33.3704 28.9355 33.1697 29.1393 32.9238 29.1393C32.855 29.1392 32.7871 29.1228 32.7257 29.0915L14.6763 19.895C14.6017 19.8563 14.5392 19.7976 14.4958 19.7254C14.4524 19.6532 14.4298 19.5704 14.4304 19.4862V0.455419C14.4304 0.203806 14.6299 0 14.8757 0C14.9461 0.000299797 15.0154 0.0175588 15.0777 0.0503226L33.1283 9.47574C33.2019 9.51456 33.2635 9.57283 33.3063 9.64424C33.3492 9.71565 33.3718 9.79747 33.3717 9.88084H33.3704Z" fill="white"/>
<path d="M45.8064 10.0167V26.7251H53.975V29.128H43.2901V10.0167H45.8064ZM57.8272 29.128H55.4739V15.478H57.8272V29.128ZM75.2594 15.1219C78.29 15.1219 80.3447 17.2519 80.3447 20.6373V29.128H77.9914V20.7191C77.9914 18.6169 76.8286 17.3877 75.016 17.3877C72.9877 17.3877 71.6894 18.7263 71.6894 21.5381V29.128H69.3362V20.7191C69.3362 18.6169 68.2273 17.3877 66.4686 17.3877C64.4942 17.3877 63.0065 18.7804 63.0065 21.5381V29.128H60.6533V15.478H63.0065V17.3059C63.926 15.8592 65.2782 15.1219 67.0369 15.1219C68.8495 15.1219 70.1741 15.8869 71.0133 17.4431C71.9591 15.8869 73.3665 15.1219 75.2594 15.1219V15.1219ZM95.8288 23.395H84.4954C84.9558 25.8243 86.8223 27.2447 89.3913 27.2447C91.1763 27.2447 92.4746 26.5892 93.2862 25.2506L95.2882 26.398C93.9623 28.4448 91.9891 29.4828 89.3374 29.4828C87.1999 29.4828 85.4425 28.8009 84.0903 27.4623C82.7644 26.0973 82.0883 24.3775 82.0883 22.303C82.0883 20.2549 82.7368 18.5351 84.0627 17.1701C85.3885 15.8051 87.092 15.1219 89.1755 15.1219C91.1499 15.1219 92.7731 15.8315 94.0175 17.2519C95.2882 18.6445 95.9116 20.3366 95.9116 22.3294C95.9116 22.6842 95.884 23.0402 95.8288 23.395V23.395ZM89.1755 17.3613C86.6592 17.3613 84.9006 18.9175 84.4954 21.3192H93.5295C93.1243 18.7263 91.3394 17.3613 89.1755 17.3613ZM105.308 15.1219C107.202 15.1219 108.825 15.8315 110.15 17.2242C111.476 18.6169 112.152 20.3089 112.152 22.303C112.152 24.2958 111.475 26.0155 110.15 27.4082C108.825 28.8009 107.202 29.484 105.308 29.484C103.063 29.484 101.359 28.582 100.197 26.7792V34.588H97.8421V15.478H100.197V17.8255C101.359 16.0227 103.063 15.1219 105.308 15.1219V15.1219ZM105.011 27.1893C106.363 27.1893 107.5 26.7251 108.419 25.7966C109.339 24.8405 109.799 23.6957 109.799 22.303C109.799 20.9103 109.339 19.7629 108.419 18.8358C107.5 17.8796 106.363 17.4154 105.011 17.4154C103.631 17.4154 102.495 17.8796 101.575 18.8358C100.656 19.7629 100.195 20.9103 100.195 22.303C100.195 23.6944 100.656 24.8418 101.575 25.7966C102.495 26.7251 103.632 27.1893 105.011 27.1893ZM125.391 17.8255V15.4767H127.744V29.128H125.391V26.7804C124.228 28.582 122.523 29.4828 120.278 29.4828C118.385 29.4828 116.762 28.8009 115.436 27.4069C114.111 26.0155 113.435 24.2958 113.435 22.303C113.435 20.3089 114.111 18.6169 115.436 17.2242C116.762 15.8315 118.385 15.1232 120.278 15.1232C122.523 15.1232 124.228 16.0227 125.391 17.8255V17.8255ZM120.577 27.1893C121.956 27.1893 123.092 26.7251 124.011 25.7966C124.932 24.8405 125.391 23.6957 125.391 22.303C125.391 20.9103 124.932 19.7629 124.011 18.8358C123.092 17.8796 121.955 17.4154 120.577 17.4154C119.223 17.4154 118.088 17.8796 117.168 18.8358C116.248 19.7629 115.789 20.9103 115.789 22.303C115.789 23.6944 116.248 24.8418 117.168 25.7966C118.088 26.7251 119.223 27.1893 120.577 27.1893ZM136.087 26.1791L139.983 15.4767H142.498L136.979 29.9747C135.817 33.0594 133.68 34.7805 130.975 34.588V32.3763C132.625 32.5134 133.842 31.585 134.626 29.5922L134.87 29.0739L128.973 15.4767H131.488L136.087 26.1791V26.1791ZM55.3134 10.1778H57.9426V12.8323H55.3134V10.1778V10.1778Z" fill="white"/>
</g>
<defs>
<clipPath id="clip0">
<rect width="143" height="39" fill="white"/>
</clipPath>
</defs>
</svg>
